<svg id="Logo-HA" xmlns="http://www.w3.org/2000/svg" viewBox="0 0 452.74 99.39"><defs><style>.cls-1{fill:#2e2f5e;}.cls-2,.cls-3,.cls-4{fill:#fff;stroke-linecap:round;stroke-linejoin:round;stroke-width:2px;}.cls-2{stroke:#62b984;}.cls-3{stroke:#b94894;}.cls-4{stroke:#f59c1e;}</style></defs><title>hellodevs-logo</title><path class="cls-1" d="M158.32,48V77.75H143.38v-27c0-3.17-.9-3.92-2.26-3.92-1.58,0-3.32,1.28-5.05,4V77.75H121.14V21.64l14.93-1.51v21c3.47-3.62,6.86-5.13,11.39-5.13C154.17,36,158.32,40.34,158.32,48Z"/><path class="cls-1" d="M201.91,61.84H177.47c.83,5.8,3.7,6.86,8.07,6.86,2.87,0,5.66-1.13,9.13-3.54l6,8.14a26.08,26.08,0,0,1-16.59,6c-14.78,0-21.72-9.13-21.72-21.57,0-11.77,6.71-21.72,20.06-21.72,11.92,0,19.76,7.62,19.76,21.12C202.21,58.37,202.06,60.4,201.91,61.84Zm-14.41-9c-.07-4.07-.9-7.46-4.75-7.46-3.16,0-4.82,1.81-5.35,8h10.1Z"/><path class="cls-1" d="M205.91,66.14V21.64l14.93-1.51v45.4c0,1.36.6,2,1.81,2a4.17,4.17,0,0,0,1.58-.3l2.64,10.63a23.84,23.84,0,0,1-8.29,1.36C210.43,79.26,205.91,74.51,205.91,66.14Z"/><path class="cls-1" d="M228.53,66.14V21.64l14.93-1.51v45.4c0,1.36.61,2,1.81,2a4.27,4.27,0,0,0,1.59-.3L249.5,77.9a23.9,23.9,0,0,1-8.3,1.36C233.06,79.26,228.53,74.51,228.53,66.14Z"/><path class="cls-1" d="M290.37,57.69c0,13.12-7.92,21.57-20.74,21.57s-20.74-7.69-20.74-21.72c0-13.12,7.92-21.57,20.74-21.57S290.37,43.66,290.37,57.69Zm-26.17-.15c0,8,1.66,11,5.43,11s5.43-3.24,5.43-10.86c0-8-1.66-11-5.43-11S264.2,49.92,264.2,57.54Z"/><path class="cls-2" d="M30.27,79.2c-15-17.05-5-60.15,1.38-60.15-12.32-.24-33.1,7.84-30.3,36.67A48.84,48.84,0,0,0,79.47,88.34C55.91,105.19,39.94,90.17,30.27,79.2Z"/><path class="cls-3" d="M85.3,50.24c-12.46,24.93-50.68,35.42-55,29,7.47,10.85,26,26,49.35,9A48.73,48.73,0,0,0,68.14,4.61C94.53,16.33,91.86,37.11,85.3,50.24Z"/><path class="cls-4" d="M31.65,19.05c27-2.89,57.53,24.75,53.65,31.19,7.6-12.88,9.34-33.91-17-45.63A48.87,48.87,0,0,0,1.44,56.41C-.47,27.74,21.57,20.13,31.65,19.05Z"/><path class="cls-1" d="M333,22V77.7H319.82l-.52-4.12A13.53,13.53,0,0,1,308,79.2c-10.41,0-15.2-8.54-15.2-21.72,0-12.43,6.44-21.27,17.07-21.27a12.65,12.65,0,0,1,8.32,3.15V20.49ZM318.18,65V49c-1.36-1.43-2.55-2.25-4.35-2.25-3.29,0-5.84,2.77-5.84,10.86,0,9.58,2.32,10.93,5.17,10.93C315,68.56,316.75,67.52,318.18,65Z"/><path class="cls-1" d="M376.68,61.9H352.42c.82,5.76,3.67,6.81,8,6.81,2.85,0,5.62-1.12,9.06-3.52l6,8.09A25.9,25.9,0,0,1,359,79.2c-14.67,0-21.56-9.07-21.56-21.42,0-11.68,6.66-21.57,19.92-21.57,11.83,0,19.61,7.56,19.61,21C377,58.45,376.84,60.48,376.68,61.9ZM362.38,53c-.07-4-.9-7.41-4.71-7.41-3.15,0-4.8,1.8-5.32,7.94h10Z"/><path class="cls-1" d="M405.76,77.7H388.24l-12.2-40h16.09l5,29.28,5.55-29.28h15Z"/><path class="cls-1" d="M451.09,41.38l-5.24,8a18.4,18.4,0,0,0-9.51-2.92c-2.47,0-3.37.75-3.37,1.8,0,1.35.44,1.95,8,4.27s11.76,5.61,11.76,12.88c0,8.24-7.87,13.78-18.95,13.78-7,0-13.48-2.47-17.59-6.37l7-7.79a17.1,17.1,0,0,0,10.18,4c2.63,0,4.2-.82,4.2-2.47,0-2-.82-2.32-7.71-4.42-7.49-2.24-11.61-6.51-11.61-12.95,0-7.19,6.22-13,17.45-13C441.65,36.21,447.42,38.23,451.09,41.38Z"/></svg>