<svg xmlns="http://www.w3.org/2000/svg" viewBox="0 0 1904.09 411.65"><defs><style>.cls-1{fill:#313132;}.cls-2{fill:#c0c0bf;}.cls-3{fill:#afbec5;}.cls-4{fill:#fff;}.cls-5{fill:#ddd;}.cls-6{fill:#c5cfd5;}.cls-7{fill:#e8e8e8;}</style></defs><title>hellodevs-logo</title><g id="Calque_2" data-name="Calque 2"><g id="Logo"><g id="Hellodevs"><g id="Tracés"><path class="cls-1" d="M649.3,197V322.6H586.16V208.44c0-13.39-3.83-16.58-9.57-16.58-6.7,0-14,5.42-21.36,16.9V322.6H492.09V85.36L555.23,79v88.65c14.67-15.31,29-21.68,48.15-21.68C631.76,145.94,649.3,164.44,649.3,197Z"/><path class="cls-1" d="M833.61,255.32H730.29c3.51,24.55,15.63,29,34.12,29,12.12,0,23.92-4.78,38.58-15l25.51,34.44C811.6,317.47,788,329,758.35,329c-62.5,0-91.84-38.58-91.84-91.2,0-49.74,28.38-91.84,84.82-91.84,50.38,0,83.55,32.21,83.55,89.29C834.88,240.65,834.24,249.26,833.61,255.32ZM772.7,217.37c-.32-17.22-3.83-31.57-20.09-31.57-13.39,0-20.41,7.65-22.64,33.8H772.7Z"/><path class="cls-1" d="M921,279.55a27.12,27.12,0,0,0,7-1.28l11.16,45c-8.93,3.19-23.28,5.74-37,5.74-32.53,0-51.66-19.13-51.66-54.53V85.36L913.66,79V266.8C913.64,276.68,916.83,279.55,921,279.55Z"/><path class="cls-1" d="M1016.64,279.55a27.13,27.13,0,0,0,7-1.28l11.16,45c-8.93,3.19-23.28,5.74-37,5.74-32.53,0-51.66-19.13-51.66-54.53V85.36L1009.28,79V266.8C1009.3,276.68,1012.49,279.55,1016.64,279.55Z"/><path class="cls-1" d="M1207.64,237.78c0,55.48-33.48,91.2-87.69,91.2-53.57,0-87.69-32.53-87.69-91.84,0-55.48,33.48-91.2,87.69-91.2C1173.52,145.94,1207.64,178.5,1207.64,237.78ZM1097,237.14c0,33.8,7,46.56,23,46.56s23-13.71,23-45.92c0-33.8-7-46.56-23-46.56S1097,204.93,1097,237.14Z"/><path class="cls-2" d="M156.1,80.69c31.1-.94,83.55,28.16,106.36,42,29.51,17.91,90.43,58.64,89.79,88.56a30.06,30.06,0,0,1-4,13.44C366.14,193,369.88,89.86,276.25,48A173.07,173.07,0,0,0,39.18,231.35C28.59,129.36,119.68,81.06,156.1,80.69Z"/><path class="cls-3" d="M125,318.33c-16.93-26.1-19.27-86-19.27-112.71,0-34.52,3.2-107.75,29.1-122.72a30.42,30.42,0,0,1,13.56-3.53C112,80.56,22,130.84,34.77,232.5A173,173,0,0,0,314.51,340.1C232.86,402.13,144.26,349.27,125,318.33Z"/><path class="cls-4" d="M232.34,366.41c-37.71,0-70.56-16.24-90.06-32.76a45.61,45.61,0,0,0,9.22.87c31.2,0,79.47-25.19,105.47-40.2,21.82-12.59,74.16-45,89-74.09,10.27-19.18,14-59.89.7-97.46A136,136,0,0,0,326,84.86a170.57,170.57,0,0,1-13.07,253.36C288.3,356.91,261.16,366.41,232.34,366.41Z"/><path class="cls-5" d="M344.82,111.48a168.1,168.1,0,0,1-33.39,224.74c-24.24,18.37-50.85,27.68-79.09,27.68s-51.33-9.26-65.81-17a137.28,137.28,0,0,1-15.8-9.87h.76c31.78,0,80.5-25.4,106.72-40.53,22-12.7,74.78-45.42,89.93-75.08,5.4-10.11,8.86-25.45,9.51-42.11A155.37,155.37,0,0,0,349,121.95c-1.19-3.35-2.57-6.86-4.18-10.46m-77-67.32C362.35,83.9,360.9,187,343.71,219.1c-14.13,27.72-64.87,59.71-88,73.06C231,306.43,182.29,332,151.49,332c-6.46,0-12.12-1.12-16.61-3.71a29.94,29.94,0,0,1-9.86-10c12.73,20.49,55.89,50.6,107.32,50.6,26.22,0,54.59-7.83,82.17-28.75a173.07,173.07,0,0,0-46.7-296Z"/><path class="cls-6" d="M268,358.05c-37.09.69-99.25-34.79-126.25-51.61-35-21.78-107-71.21-105.86-106.89.19-5.14,2-10.49,5-16-21.78,37.6-27.7,160.5,83.37,211.7,92,39.15,201.23,6.63,255.74-80.83A205.58,205.58,0,0,0,409.69,180C420.89,301.78,311.5,358.12,268,358.05Z"/><path class="cls-7" d="M42.1,185.5c17.66-32.5,78.91-69,106.79-84.19,36-19.58,114.3-57.81,144.68-39.31,4.37,2.67,8.15,6.84,11.41,12.15C283,36.8,179.31-28.66,80.39,42.56-9.71,111.8-26.62,241,42.62,331.07A205.75,205.75,0,0,0,127,395.79C15.9,345.72,20.72,223.2,42.1,185.5Z"/><path class="cls-4" d="M294.68,350.54c25.57-24.92,31.3-98,32.37-141.75.75-29.91.3-103-19.9-135.92C291.84,46.85,239.23,8.29,175,8.29a156.13,156.13,0,0,0-25,2A202.13,202.13,0,0,1,205.45,2.5c1.78,0,3.58,0,5.36.07a203.3,203.3,0,0,1,196.42,176.6c6,59.18-17.87,99.54-38.9,123C346.34,326.62,318.06,343.11,294.68,350.54Z"/><path class="cls-5" d="M205.45,5c1.76,0,3.54,0,5.3.07a200.8,200.8,0,0,1,194,174.35c2.48,24.71-.09,48.14-7.62,69.65a151.78,151.78,0,0,1-30.65,51.39,173.86,173.86,0,0,1-51.74,39.18c-4.13,2-8.25,3.87-12.31,5.46,8.21-11.78,14.65-29.82,19.25-53.94,5.56-29.12,7.35-60.84,7.87-82.31.75-30.13.28-103.79-20.24-137.25C294.42,46.37,245.43,9.67,184.72,6.07A200.24,200.24,0,0,1,205.45,5m0-5A204.9,204.9,0,0,0,80.39,42.59c32-23.07,64.56-31.8,94.65-31.81,62.86,0,115.1,38.12,130,63.4,19.36,31.51,20.32,102.84,19.53,134.55-1,41-7,128-38.26,145-4.51,2.44-10,3.63-16.24,3.8,43.32-.31,151.86-57.4,139.66-178.69C396.78,80.06,313.58,2.65,210.88.07c-1.81,0-3.62-.07-5.43-.07Z"/><path class="cls-1" d="M1390.48,84.12V323.29H1333.9l-2.25-17.68c-9,11.89-23.79,24.11-48.54,24.11-44.68,0-65.26-36.65-65.26-93.23,0-53.36,27.65-91.3,73.3-91.3a54.15,54.15,0,0,1,35.68,13.5v-81ZM1326.83,269v-68.8c-5.79-6.11-10.93-9.64-18.64-9.64-14.15,0-25.08,11.89-25.08,46.61,0,41.15,10,46.93,22.18,46.93,8,0,15.43-4.5,21.54-15.1Z"/><path class="cls-1" d="M1577.88,255.5H1473.72c3.54,24.76,15.75,29.25,34.4,29.25,12.22,0,24.11-4.82,38.9-15.11l25.72,34.72a111.09,111.09,0,0,1-70.72,25.4c-63,0-92.58-38.9-92.58-91.94,0-50.15,28.61-92.59,85.51-92.59,50.79,0,84.22,32.47,84.22,90C1579.16,240.67,1578.52,249.35,1577.88,255.5Zm-61.4-38.25c-.32-17.36-3.86-31.83-20.25-31.83-13.5,0-20.57,7.72-22.83,34.08h43.08Z"/><path class="cls-1" d="M1702.59,323.29h-75.23L1575,151.63h69.12l21.54,125.7,23.79-125.7h64.3Z"/><path class="cls-1" d="M1897,167.38l-22.5,34.4c-12.22-7.71-27-12.53-40.83-12.53-10.61,0-14.47,3.21-14.47,7.71,0,5.79,1.93,8.36,34.4,18.32s50.47,24.11,50.47,55.3c0,35.36-33.75,59.15-81.33,59.15-30.22,0-57.87-10.61-75.55-27.33L1777.43,269c12.22,9.64,28,17,43.72,17,11.25,0,18-3.54,18-10.61,0-8.36-3.54-10-33.11-19-32.15-9.64-49.83-28-49.83-55.61,0-30.86,26.68-55.61,74.9-55.61C1856.56,145.2,1881.31,153.88,1897,167.38Z"/></g></g></g></g></svg>