<svg id="Logo-HA" xmlns="http://www.w3.org/2000/svg" viewBox="0 0 452.74 99.39"><defs><style>.cls-1{fill:#2e2f5e}</style></defs><path class="cls-1" d="M158.32 48v29.75h-14.94v-27c0-3.17-.9-3.92-2.26-3.92-1.58 0-3.32 1.28-5.05 4v26.92h-14.93V21.64l14.93-1.51v21c3.47-3.62 6.86-5.13 11.39-5.13 6.71 0 10.86 4.34 10.86 12zm43.59 13.84h-24.44c.83 5.8 3.7 6.86 8.07 6.86 2.87 0 5.66-1.13 9.13-3.54l6 8.14a26.08 26.08 0 0 1-16.59 6c-14.78 0-21.72-9.13-21.72-21.57 0-11.77 6.71-21.72 20.06-21.72 11.92 0 19.76 7.62 19.76 21.12.03 1.24-.12 3.27-.27 4.71zm-14.41-9c-.07-4.07-.9-7.46-4.75-7.46-3.16 0-4.82 1.81-5.35 8h10.1zm18.41 13.3v-44.5l14.93-1.51v45.4c0 1.36.6 2 1.81 2a4.17 4.17 0 0 0 1.58-.3l2.64 10.63a23.84 23.84 0 0 1-8.29 1.36c-8.15.04-12.67-4.71-12.67-13.08zm22.62 0v-44.5l14.93-1.51v45.4c0 1.36.61 2 1.81 2a4.27 4.27 0 0 0 1.59-.3l2.64 10.67a23.9 23.9 0 0 1-8.3 1.36c-8.14 0-12.67-4.75-12.67-13.12zm61.84-8.45c0 13.12-7.92 21.57-20.74 21.57s-20.74-7.69-20.74-21.72c0-13.12 7.92-21.57 20.74-21.57s20.74 7.69 20.74 21.72zm-26.17-.15c0 8 1.66 11 5.43 11s5.43-3.24 5.43-10.86c0-8-1.66-11-5.43-11s-5.43 3.24-5.43 10.86z"/><path d="M30.27 79.2c-15-17.05-5-60.15 1.38-60.15-12.32-.24-33.1 7.84-30.3 36.67a48.84 48.84 0 0 0 78.12 32.62c-23.56 16.85-39.53 1.83-49.2-9.14z" stroke="#62b984" fill="#fff" stroke-linecap="round" stroke-linejoin="round" stroke-width="2"/><path d="M85.3 50.24c-12.46 24.93-50.68 35.42-55 29 7.47 10.85 26 26 49.35 9A48.73 48.73 0 0 0 68.14 4.61c26.39 11.72 23.72 32.5 17.16 45.63z" stroke="#b94894" fill="#fff" stroke-linecap="round" stroke-linejoin="round" stroke-width="2"/><path d="M31.65 19.05c27-2.89 57.53 24.75 53.65 31.19 7.6-12.88 9.34-33.91-17-45.63a48.87 48.87 0 0 0-66.86 51.8C-.47 27.74 21.57 20.13 31.65 19.05z" stroke="#f59c1e" fill="#fff" stroke-linecap="round" stroke-linejoin="round" stroke-width="2"/><path class="cls-1" d="M333 22v55.7h-13.18l-.52-4.12A13.53 13.53 0 0 1 308 79.2c-10.41 0-15.2-8.54-15.2-21.72 0-12.43 6.44-21.27 17.07-21.27a12.65 12.65 0 0 1 8.32 3.15V20.49zm-14.82 43V49c-1.36-1.43-2.55-2.25-4.35-2.25-3.29 0-5.84 2.77-5.84 10.86 0 9.58 2.32 10.93 5.17 10.93 1.84.02 3.59-1.02 5.02-3.54zm58.5-3.1h-24.26c.82 5.76 3.67 6.81 8 6.81 2.85 0 5.62-1.12 9.06-3.52l6 8.09A25.9 25.9 0 0 1 359 79.2c-14.67 0-21.56-9.07-21.56-21.42 0-11.68 6.66-21.57 19.92-21.57 11.83 0 19.61 7.56 19.61 21 .03 1.24-.13 3.27-.29 4.69zm-14.3-8.9c-.07-4-.9-7.41-4.71-7.41-3.15 0-4.8 1.8-5.32 7.94h10zm43.38 24.7h-17.52l-12.2-40h16.09l5 29.28 5.55-29.28h15zm45.33-36.32l-5.24 8a18.4 18.4 0 0 0-9.51-2.92c-2.47 0-3.37.75-3.37 1.8 0 1.35.44 1.95 8 4.27s11.76 5.61 11.76 12.88c0 8.24-7.87 13.78-18.95 13.78-7 0-13.48-2.47-17.59-6.37l7-7.79a17.1 17.1 0 0 0 10.18 4c2.63 0 4.2-.82 4.2-2.47 0-2-.82-2.32-7.71-4.42-7.49-2.24-11.61-6.51-11.61-12.95 0-7.19 6.22-13 17.45-13 5.95.02 11.72 2.04 15.39 5.19z"/></svg>