<?xml version="1.0" encoding="utf-8"?>
<!-- Generator: Adobe Illustrator 19.2.0, SVG Export Plug-In . SVG Version: 6.00 Build 0)  -->
<svg version="1.1" id="Calque_1" xmlns="http://www.w3.org/2000/svg" xmlns:xlink="http://www.w3.org/1999/xlink" x="0px" y="0px"
	 viewBox="0 0 851.1 198.1" style="enable-background:new 0 0 851.1 198.1;" xml:space="preserve">
<style type="text/css">
	.st0{fill:#fff;}
	.st1{clip-path:url(#SVGID_4_);}
	.st2{clip-path:url(#SVGID_8_);}
	.st3{clip-path:url(#SVGID_12_);}
	.st4{clip-path:url(#SVGID_16_);}
	.st5{clip-path:url(#SVGID_20_);}
	.st6{clip-path:url(#SVGID_24_);}
	.st7{clip-path:url(#SVGID_28_);}
</style>
<g>
	<g>
		<g>
			<polyline id="SVGID_1_" class="st0" points="252,72.4 267.3,72.4 267.3,114.2 294,114.2 294,127.5 252,127.5 252,72.4 			"/>
		</g>
	</g>
	<g>
		<g>
			<polyline id="SVGID_3_" class="st0" points="315.5,72.4 359.9,72.4 359.9,85.4 330.6,85.4 330.6,93.8 357.1,93.8 357.1,105.8 
				330.6,105.8 330.6,114.5 360.3,114.5 360.3,127.5 315.5,127.5 315.5,72.4 			"/>
		</g>
		<g>
			<defs>
				<polyline id="SVGID_2_" points="315.5,72.4 359.9,72.4 359.9,85.4 330.6,85.4 330.6,93.8 357.1,93.8 357.1,105.8 330.6,105.8 
					330.6,114.5 360.3,114.5 360.3,127.5 315.5,127.5 315.5,72.4 				"/>
			</defs>
			<clipPath id="SVGID_4_">
				<use xlink:href="#SVGID_2_"  style="overflow:visible;"/>
			</clipPath>
			<g class="st1">
				<g>
					<rect id="SVGID_5_" x="0" class="st0" width="851.1" height="198.1"/>
				</g>
			</g>
		</g>
	</g>
	<g>
		<g>
			<polyline id="SVGID_7_" class="st0" points="385.3,72.4 401.4,72.4 414.6,93.8 427.7,72.4 443.9,72.4 443.9,127.5 428.7,127.5 
				428.7,95.9 414.6,117.5 414.2,117.5 400.2,96.1 400.2,127.5 385.3,127.5 385.3,72.4 			"/>
		</g>
		<g>
			<defs>
				<polyline id="SVGID_6_" points="385.3,72.4 401.4,72.4 414.6,93.8 427.7,72.4 443.9,72.4 443.9,127.5 428.7,127.5 428.7,95.9 
					414.6,117.5 414.2,117.5 400.2,96.1 400.2,127.5 385.3,127.5 385.3,72.4 				"/>
			</defs>
			<clipPath id="SVGID_8_">
				<use xlink:href="#SVGID_6_"  style="overflow:visible;"/>
			</clipPath>
			<g class="st2">
				<g>
					<rect id="SVGID_9_" x="0" class="st0" width="851.1" height="198.1"/>
				</g>
			</g>
		</g>
	</g>
	<g>
		<g>
			<path id="SVGID_11_" class="st0" d="M511.5,100.2V100c0-7.9-5.8-14.9-14.2-14.9c-8.4,0-13.9,6.8-13.9,14.7v0.2
				c0,8,5.8,14.9,14.1,14.9C505.9,114.9,511.5,108.1,511.5,100.2z M467.7,100.2V100c0-15.8,12.8-28.6,29.8-28.6
				c17,0,29.6,12.7,29.6,28.5v0.2c0,15.8-12.7,28.6-29.8,28.6C480.3,128.6,467.7,116,467.7,100.2z"/>
		</g>
		<g>
			<defs>
				<path id="SVGID_10_" d="M511.5,100.2V100c0-7.9-5.8-14.9-14.2-14.9c-8.4,0-13.9,6.8-13.9,14.7v0.2c0,8,5.8,14.9,14.1,14.9
					C505.9,114.9,511.5,108.1,511.5,100.2z M467.7,100.2V100c0-15.8,12.8-28.6,29.8-28.6c17,0,29.6,12.7,29.6,28.5v0.2
					c0,15.8-12.7,28.6-29.8,28.6C480.3,128.6,467.7,116,467.7,100.2z"/>
			</defs>
			<clipPath id="SVGID_12_">
				<use xlink:href="#SVGID_10_"  style="overflow:visible;"/>
			</clipPath>
			<g class="st3">
				<g>
					<rect id="SVGID_13_" x="0" class="st0" width="851.1" height="198.1"/>
				</g>
			</g>
		</g>
	</g>
	<g>
		<g>
			<polyline id="SVGID_15_" class="st0" points="551,72.4 565.3,72.4 588,101.6 588,72.4 603.1,72.4 603.1,127.5 589.7,127.5 
				566.2,97.3 566.2,127.5 551,127.5 551,72.4 			"/>
		</g>
		<g>
			<defs>
				<polyline id="SVGID_14_" points="551,72.4 565.3,72.4 588,101.6 588,72.4 603.1,72.4 603.1,127.5 589.7,127.5 566.2,97.3 
					566.2,127.5 551,127.5 551,72.4 				"/>
			</defs>
			<clipPath id="SVGID_16_">
				<use xlink:href="#SVGID_14_"  style="overflow:visible;"/>
			</clipPath>
			<g class="st4">
				<g>
					<rect id="SVGID_17_" x="0" class="st0" width="851.1" height="198.1"/>
				</g>
			</g>
		</g>
	</g>
	<g>
		<g>
			<polyline id="SVGID_19_" class="st0" points="624.5,72.4 640.6,72.4 650.2,104.3 660.8,72.3 674,72.3 684.6,104.3 694.2,72.4 
				710.1,72.4 691.7,127.9 678.3,127.9 667.2,96.2 656.2,127.9 642.9,127.9 624.5,72.4 			"/>
		</g>
		<g>
			<defs>
				<polyline id="SVGID_18_" points="624.5,72.4 640.6,72.4 650.2,104.3 660.8,72.3 674,72.3 684.6,104.3 694.2,72.4 710.1,72.4 
					691.7,127.9 678.3,127.9 667.2,96.2 656.2,127.9 642.9,127.9 624.5,72.4 				"/>
			</defs>
			<clipPath id="SVGID_20_">
				<use xlink:href="#SVGID_18_"  style="overflow:visible;"/>
			</clipPath>
			<g class="st5">
				<g>
					<rect id="SVGID_21_" x="0" class="st0" width="851.1" height="198.1"/>
				</g>
			</g>
		</g>
	</g>
	<g>
		<g>
			<path id="SVGID_23_" class="st0" d="M759.1,105.8l-6.1-15.7l-6.2,15.7H759.1z M745.7,72.1h14.7l23.5,55.5h-16.4l-4-9.8h-21.3
				l-3.9,9.8h-16.1L745.7,72.1z"/>
		</g>
		<g>
			<defs>
				<path id="SVGID_22_" d="M759.1,105.8l-6.1-15.7l-6.2,15.7H759.1z M745.7,72.1h14.7l23.5,55.5h-16.4l-4-9.8h-21.3l-3.9,9.8h-16.1
					L745.7,72.1z"/>
			</defs>
			<clipPath id="SVGID_24_">
				<use xlink:href="#SVGID_22_"  style="overflow:visible;"/>
			</clipPath>
			<g class="st6">
				<g>
					<rect id="SVGID_25_" x="0" class="st0" width="851.1" height="198.1"/>
				</g>
			</g>
		</g>
	</g>
	<g>
		<g>
			<polyline id="SVGID_27_" class="st0" points="813.7,106.9 792.7,72.4 810.1,72.4 821.5,92.5 832.9,72.4 850,72.4 829,106.7 
				829,127.5 813.7,127.5 813.7,106.9 			"/>
		</g>
		<g>
			<defs>
				<polyline id="SVGID_26_" points="813.7,106.9 792.7,72.4 810.1,72.4 821.5,92.5 832.9,72.4 850,72.4 829,106.7 829,127.5 
					813.7,127.5 813.7,106.9 				"/>
			</defs>
			<clipPath id="SVGID_28_">
				<use xlink:href="#SVGID_26_"  style="overflow:visible;"/>
			</clipPath>
			<g class="st7">
				<g>
					<rect id="SVGID_29_" x="0" class="st0" width="851.1" height="198.1"/>
				</g>
			</g>
		</g>
	</g>
	<g>
		<g>
			<path id="SVGID_31_" class="st0" d="M163.7,101.4c-0.3,0.8-0.7,1.6-1,2.5c-1.7,3.4-2.3,7-2.4,10.6c0,0.7,0,1.5,0,2.2
				c0.5,3.1,0.5,6.7-0.2,10c-0.2,0.8-0.4,1.6-0.7,2.4c-1.6,6-7.3,10.1-13.3,9.2c11-8.6,7.9-24.3,7.9-24.3
				c-0.7,14.4-10.2,22.4-13.5,24.9c0,0-0.1-0.1-0.1-0.2c-14.8-38.4-61.7-43.2-61.7-43.2c40.2,14.5,53.5,38.3,57.6,50
				c-0.1,0.1-0.2,0.2-0.3,0.3c-7,8.3-15.3,13.6-26.7,14.1c-8,0.3-15.5-0.4-22.8-2.5c-1.9-0.6-3.8-1.3-5.6-2.2
				c-24.1-10.8-44.2-41.5-39-107c0,0,3.5,3.8,9,8.7c1.8,1.6,3.9,3.3,6.1,5.1c8.2,7.6,17.7,12.6,28,16.1c2.1,0.7,4.2,1.3,6.3,1.9
				c9.3,1.3,19.4,4.4,28.1,9.2c2.2,1.2,4.3,2.5,6.3,4c6.5,4,11.5,9.8,14.5,16.5c4.7-4.9,12.6-9.4,25.3-12.2
				C165.6,97.6,164.7,99.1,163.7,101.4 M99.1,0C44.4,0,0,44.3,0,99c0,54.7,44.4,99,99.1,99s99.1-44.3,99.1-99
				C198.2,44.3,153.9,0,99.1,0"/>
		</g>
	</g>
</g>
</svg>
